G75*
%MOIN*%
%OFA0B0*%
%FSLAX25Y25*%
%IPPOS*%
%LPD*%
%AMOC8*
5,1,8,0,0,1.08239X$1,22.5*
%
%ADD10R,0.05131X0.04737*%
%ADD11R,0.06312X0.07099*%
%ADD12R,0.06706X0.02375*%
%ADD13R,0.30328X0.06706*%
%ADD14R,0.26391X0.04737*%
%ADD15R,0.08280X0.14186*%
%ADD16OC8,0.09300*%
%ADD17R,0.04737X0.05131*%
%ADD18R,0.03950X0.07099*%
%ADD19R,0.07099X0.03950*%
%ADD20C,0.04800*%
D10*
X0117987Y0016600D03*
X0124680Y0016600D03*
X0124680Y0046600D03*
X0117987Y0046600D03*
X0117987Y0056600D03*
X0124680Y0056600D03*
D11*
X0066845Y0031600D03*
X0055822Y0031600D03*
D12*
X0077062Y0032584D03*
X0077062Y0030025D03*
X0077062Y0027466D03*
X0077062Y0035143D03*
X0077062Y0037702D03*
X0077062Y0040261D03*
X0077062Y0042820D03*
X0077062Y0045380D03*
X0077062Y0047939D03*
X0077062Y0050498D03*
X0077062Y0053057D03*
X0077062Y0055616D03*
X0077062Y0058175D03*
X0077062Y0060734D03*
X0105605Y0060734D03*
X0105605Y0058175D03*
X0105605Y0055616D03*
X0105605Y0053057D03*
X0105605Y0050498D03*
X0105605Y0047939D03*
X0105605Y0045380D03*
X0105605Y0042820D03*
X0105605Y0040261D03*
X0105605Y0037702D03*
X0105605Y0035143D03*
X0105605Y0032584D03*
X0105605Y0030025D03*
X0105605Y0027466D03*
D13*
X0030546Y0022820D03*
X0030546Y0050380D03*
D14*
X0032514Y0040537D03*
X0032514Y0032663D03*
D15*
X0053656Y0016600D03*
X0069010Y0016600D03*
D16*
X0081333Y0011600D03*
X0091333Y0011600D03*
D17*
X0117987Y0026600D03*
X0124680Y0026600D03*
X0124680Y0036600D03*
X0117987Y0036600D03*
X0064680Y0046600D03*
X0057987Y0046600D03*
X0057987Y0056600D03*
X0064680Y0056600D03*
D18*
X0170349Y0062584D03*
X0175073Y0062584D03*
X0179798Y0062584D03*
X0184522Y0062584D03*
X0189247Y0062584D03*
X0193971Y0062584D03*
X0198696Y0062584D03*
X0203420Y0062584D03*
X0208144Y0062584D03*
X0212869Y0062584D03*
X0217593Y0062584D03*
X0222318Y0062584D03*
X0222318Y0010616D03*
X0217593Y0010616D03*
X0212869Y0010616D03*
X0208144Y0010616D03*
X0203420Y0010616D03*
X0198696Y0010616D03*
X0193971Y0010616D03*
X0189247Y0010616D03*
X0184522Y0010616D03*
X0179798Y0010616D03*
X0175073Y0010616D03*
X0170349Y0010616D03*
D19*
X0233341Y0020371D03*
X0233341Y0024395D03*
X0233341Y0029120D03*
X0233341Y0033844D03*
X0233341Y0039356D03*
X0233341Y0044080D03*
X0233341Y0048805D03*
X0233341Y0052829D03*
D20*
X0213833Y0056600D03*
X0178833Y0056600D03*
X0133833Y0044100D03*
X0117583Y0051600D03*
X0098833Y0037850D03*
X0112583Y0031600D03*
X0130083Y0026600D03*
X0100083Y0020350D03*
X0112583Y0016600D03*
X0133833Y0016600D03*
X0048833Y0036600D03*
X0048833Y0045350D03*
X0068833Y0051600D03*
X0070083Y0057850D03*
X0065083Y0061600D03*
M02*
